<?xml version="1.0" standalone="no"?>
<!DOCTYPE svg PUBLIC "-//W3C//DTD SVG 20010904//EN"
 "http://www.w3.org/TR/2001/REC-SVG-20010904/DTD/svg10.dtd">
<svg version="1.0" xmlns="http://www.w3.org/2000/svg"
 width="600.000000pt" height="600.000000pt" viewBox="0 0 600.000000 600.000000"
 preserveAspectRatio="xMidYMid meet">
<g transform="translate(0.000000,600.000000) scale(0.100000,-0.100000)"
fill="#77a66e" stroke="none">
<path d="M2960 5253 c-20 -26 -655 -1047 -870 -1398 -54 -88 -101 -170 -104
-182 -13 -42 23 -53 174 -54 74 -1 172 -4 217 -7 l82 -7 -209 -340 c-115 -187
-239 -389 -276 -450 -37 -60 -98 -160 -136 -221 -37 -61 -68 -117 -68 -126 0
-37 23 -40 235 -37 113 2 205 0 205 -4 0 -5 -29 -63 -64 -130 -35 -67 -143
-273 -240 -459 -97 -185 -176 -343 -176 -351 0 -40 14 -40 428 -28 218 6 423
11 455 11 l57 0 0 -369 c0 -257 3 -372 11 -377 6 -3 132 -3 280 1 l269 7 0
374 c0 205 3 375 8 377 4 3 198 10 432 16 234 6 462 14 508 17 76 5 82 7 88
30 5 19 -7 45 -49 112 -243 387 -487 783 -487 792 0 6 69 10 198 10 227 0 246
5 225 59 -9 26 -132 239 -491 856 -104 178 -113 195 -105 196 4 0 82 1 172 2
145 2 165 4 175 20 9 14 6 27 -15 65 -14 26 -61 115 -104 197 -43 83 -81 155
-85 160 -4 6 -35 64 -70 130 -35 66 -66 125 -70 130 -4 6 -35 64 -70 130 -35
66 -122 230 -195 365 -72 135 -160 299 -195 365 -81 155 -99 170 -140 118z"/>
</g>
</svg>
